<svg width="818" height="143" viewBox="0 0 818 143" fill="none" xmlns="http://www.w3.org/2000/svg">
<path d="M78.7843 63.76C87.7443 59.28 92.3643 51.72 92.3643 42.62C92.3643 27.78 79.7643 17 52.7443 17H0.384297V115H55.5443C82.5643 115 96.9843 105.06 96.9843 87.98C96.9843 76.36 90.2643 67.96 78.7843 63.76ZM48.2643 40.1C55.6843 40.1 59.0443 42.62 59.0443 47.38C59.0443 52.14 55.6843 54.66 48.2643 54.66H32.8643V40.1H48.2643ZM52.7443 91.9H32.8643V76.5H52.7443C60.0243 76.5 63.6643 79.16 63.6643 84.2C63.6643 89.24 60.0243 91.9 52.7443 91.9ZM189.166 76.64C189.166 50.74 169.706 37.02 147.026 37.02C122.246 37.02 103.626 53.4 103.626 76.64C103.626 99.46 121.826 116.4 149.966 116.4C165.226 116.4 176.006 112.2 183.426 104.08L166.906 87.42C161.866 91.2 157.946 93.02 150.946 93.02C143.106 93.02 137.786 89.94 135.546 84.06H188.746C188.886 81.82 189.166 78.88 189.166 76.64ZM147.306 58.58C153.746 58.58 158.366 62.36 159.626 68.8H134.986C136.246 62.36 140.726 58.58 147.306 58.58ZM248.01 90.36C245.91 91.76 243.39 92.46 240.87 92.46C237.09 92.46 234.29 89.8 234.29 85.04V65.72H249.97V42.62H234.29V21.2H202.65V42.62H192.15V65.72H202.65V85.32C202.65 106.46 214.97 116.4 236.11 116.4C243.53 116.4 250.67 115.14 255.57 112.34L248.01 90.36ZM311.038 90.36C308.938 91.76 306.418 92.46 303.898 92.46C300.118 92.46 297.318 89.8 297.318 85.04V65.72H312.998V42.62H297.318V21.2H265.678V42.62H255.178V65.72H265.678V85.32C265.678 106.46 277.998 116.4 299.138 116.4C306.558 116.4 313.698 115.14 318.598 112.34L311.038 90.36ZM406.001 76.64C406.001 50.74 386.541 37.02 363.861 37.02C339.081 37.02 320.461 53.4 320.461 76.64C320.461 99.46 338.661 116.4 366.801 116.4C382.061 116.4 392.841 112.2 400.261 104.08L383.741 87.42C378.701 91.2 374.781 93.02 367.781 93.02C359.941 93.02 354.621 89.94 352.381 84.06H405.581C405.721 81.82 406.001 78.88 406.001 76.64ZM364.141 58.58C370.581 58.58 375.201 62.36 376.461 68.8H351.821C353.081 62.36 357.561 58.58 364.141 58.58ZM446.086 46.68V38.42H415.986V115H447.626V80.98C447.626 68.8 454.346 64.46 463.866 64.46C466.106 64.46 468.066 64.6 470.866 65.02V37.02C460.226 37.02 451.686 40.24 446.086 46.68ZM622.946 37.02C613.426 37.02 606.566 39.54 601.946 44.72V38.42H571.846V142.16H603.486V109.82C608.106 114.3 614.546 116.4 622.946 116.4C642.966 116.4 659.906 101.42 659.906 76.78C659.906 52.14 642.966 37.02 622.946 37.02ZM615.386 91.76C608.386 91.76 602.926 86.72 602.926 76.78C602.926 66.84 608.386 61.66 615.386 61.66C622.386 61.66 627.846 66.84 627.846 76.78C627.846 86.72 622.386 91.76 615.386 91.76ZM669.873 115H701.513V11.12H669.873V115ZM731.357 32.26C742.977 32.26 750.397 25.26 750.397 15.6C750.397 6.49999 742.977 0.0599945 731.357 0.0599945C719.737 0.0599945 712.317 7.06 712.317 16.16C712.317 25.26 719.737 32.26 731.357 32.26ZM715.537 115H747.177V38.42H715.537V115ZM810.061 90.36C807.961 91.76 805.441 92.46 802.921 92.46C799.141 92.46 796.341 89.8 796.341 85.04V65.72H812.021V42.62H796.341V21.2H764.701V42.62H754.201V65.72H764.701V85.32C764.701 106.46 777.021 116.4 798.161 116.4C805.581 116.4 812.721 115.14 817.621 112.34L810.061 90.36Z" fill="black"/>
<path d="M562.994 84.2C562.994 48.08 508.814 57.88 508.814 46.12C508.814 42.76 511.894 39.96 521.554 39.96C530.094 39.96 539.194 42.34 548.854 47.24L558.794 23.3C550.814 18.82 540.734 16.16 530.374 15.18V0.199993H510.634V15.46C487.674 18.68 476.194 31.98 476.194 47.8C476.194 84.34 530.374 74.4 530.374 86.72C530.374 90.08 527.014 92.04 517.634 92.04C506.854 92.04 494.534 88.54 485.294 83.08L474.654 107.16C483.054 112.34 496.634 116.12 510.634 116.96V131.8H530.374V116.26C552.074 112.48 562.994 99.32 562.994 84.2Z" fill="url(#paint0_linear)"/>
<defs>
<linearGradient id="paint0_linear" x1="405.5" y1="-11" x2="405.5" y2="140" gradientUnits="userSpaceOnUse">
<stop stop-color="#017C50"/>
<stop offset="1" stop-color="#00DF8F"/>
</linearGradient>
</defs>
</svg>
